<svg width="52" height="52" viewBox="0 0 52 52" fill="none" xmlns="http://www.w3.org/2000/svg">
<rect width="52" height="52" rx="8" fill="#FF640A"/>
<path d="M23.5 30.1667V31C23.5 31.663 23.7634 32.2989 24.2323 32.7678C24.7011 33.2366 25.337 33.5 26 33.5C26.6631 33.5 27.299 33.2366 27.7678 32.7678C28.2366 32.2989 28.5 31.663 28.5 31V30.1667M24.3334 20.1667C24.3334 19.7246 24.509 19.3007 24.8215 18.9882C25.1341 18.6756 25.558 18.5 26 18.5C26.4421 18.5 26.866 18.6756 27.1786 18.9882C27.4911 19.3007 27.6667 19.7246 27.6667 20.1667C28.6237 20.6192 29.4395 21.3236 30.0267 22.2044C30.614 23.0852 30.9504 24.1092 31 25.1667V27.6667C31.0628 28.1848 31.2462 28.6809 31.5357 29.1151C31.8252 29.5493 32.2126 29.9095 32.6667 30.1667H19.3334C19.7875 29.9095 20.1749 29.5493 20.4644 29.1151C20.7538 28.6809 20.9373 28.1848 21 27.6667V25.1667C21.0497 24.1092 21.3861 23.0852 21.9733 22.2044C22.5605 21.3236 23.3764 20.6192 24.3334 20.1667Z" stroke="white" stroke-width="2" stroke-linecap="round" stroke-linejoin="round"/>
</svg>
