<svg width="52" height="52" viewBox="0 0 52 52" fill="none" xmlns="http://www.w3.org/2000/svg">
<rect width="52" height="52" rx="8" fill="#FF4D4D"/>
<path d="M33.5 33.5L28.5 28.5M18.5 24.3333C18.5 25.0994 18.6509 25.8579 18.944 26.5657C19.2372 27.2734 19.6669 27.9164 20.2085 28.4581C20.7502 28.9998 21.3933 29.4295 22.101 29.7226C22.8087 30.0158 23.5673 30.1667 24.3333 30.1667C25.0994 30.1667 25.8579 30.0158 26.5657 29.7226C27.2734 29.4295 27.9164 28.9998 28.4581 28.4581C28.9998 27.9164 29.4295 27.2734 29.7226 26.5657C30.0158 25.8579 30.1667 25.0994 30.1667 24.3333C30.1667 23.5673 30.0158 22.8087 29.7226 22.101C29.4295 21.3933 28.9998 20.7502 28.4581 20.2085C27.9164 19.6669 27.2734 19.2372 26.5657 18.944C25.8579 18.6509 25.0994 18.5 24.3333 18.5C23.5673 18.5 22.8087 18.6509 22.101 18.944C21.3933 19.2372 20.7502 19.6669 20.2085 20.2085C19.6669 20.7502 19.2372 21.3933 18.944 22.101C18.6509 22.8087 18.5 23.5673 18.5 24.3333Z" stroke="#F1F2F3" stroke-width="2" stroke-linecap="round" stroke-linejoin="round"/>
</svg>
