<svg width="41" height="41" viewBox="0 0 41 41" fill="none" xmlns="http://www.w3.org/2000/svg">
<path d="M20.5 15.3614V22.0281M20.5 28.6948H20.5166M17.5666 6.95642L3.52995 30.3898C3.24074 30.8909 3.08775 31.4591 3.08619 32.0377C3.08463 32.6163 3.23456 33.1853 3.52106 33.688C3.80756 34.1907 4.22065 34.6097 4.71928 34.9033C5.21791 35.1969 5.78469 35.3548 6.36328 35.3614H34.4383C35.0169 35.3548 35.5837 35.1969 36.0823 34.9033C36.5809 34.6097 36.994 34.1907 37.2805 33.688C37.567 33.1853 37.7169 32.6163 37.7154 32.0377C37.7138 31.4591 37.5608 30.8909 37.2716 30.3898L23.2333 6.95642C22.9377 6.46974 22.5217 6.0674 22.0255 5.78819C21.5292 5.50898 20.9694 5.3623 20.4 5.3623C19.8305 5.3623 19.2707 5.50898 18.7745 5.78819C18.2782 6.0674 17.8622 6.46974 17.5666 6.95642Z" stroke="#FFC14C" stroke-width="4" stroke-linecap="round" stroke-linejoin="round"/>
</svg>
