<svg width="41" height="41" viewBox="0 0 41 41" fill="none" xmlns="http://www.w3.org/2000/svg">
<path d="M15.4999 12.027H25.4999M15.4999 18.6937H25.4999M15.4999 25.3604H22.1666M8.83325 8.69368C8.83325 7.80963 9.18444 6.96178 9.80956 6.33666C10.4347 5.71154 11.2825 5.36035 12.1666 5.36035H28.8333C29.7173 5.36035 30.5652 5.71154 31.1903 6.33666C31.8154 6.96178 32.1666 7.80963 32.1666 8.69368V32.027C32.1666 32.9111 31.8154 33.7589 31.1903 34.384C30.5652 35.0092 29.7173 35.3604 28.8333 35.3604H12.1666C11.2825 35.3604 10.4347 35.0092 9.80956 34.384C9.18444 33.7589 8.83325 32.9111 8.83325 32.027V8.69368Z" stroke="#A4DC6C" stroke-width="4" stroke-linecap="round" stroke-linejoin="round"/>
</svg>
