<svg width="20" height="20" viewBox="0 0 20 20" fill="none" xmlns="http://www.w3.org/2000/svg">
<path d="M10.8333 10.0001C11.6068 10.0001 12.3487 9.69279 12.8956 9.14581C13.4426 8.59883 13.7499 7.85696 13.7499 7.08341C13.7499 6.30987 13.4426 5.568 12.8956 5.02102C12.3487 4.47404 11.6068 4.16675 10.8333 4.16675H5.83325V10.0001M10.8333 10.0001H5.83325M10.8333 10.0001H11.6666C12.4401 10.0001 13.182 10.3074 13.729 10.8544C14.276 11.4013 14.5833 12.1432 14.5833 12.9167C14.5833 13.6903 14.276 14.4322 13.729 14.9791C13.182 15.5261 12.4401 15.8334 11.6666 15.8334H5.83325V10.0001" stroke="#809CDE" stroke-width="2" stroke-linecap="round" stroke-linejoin="round"/>
</svg>
