<svg width="15" height="18" viewBox="0 0 15 18" fill="none" xmlns="http://www.w3.org/2000/svg">
<path d="M9.16675 1.5V4.83333C9.16675 5.05435 9.25455 5.26631 9.41083 5.42259C9.56711 5.57887 9.77907 5.66667 10.0001 5.66667H13.3334M9.16675 1.5H3.33341C2.89139 1.5 2.46746 1.67559 2.1549 1.98816C1.84234 2.30072 1.66675 2.72464 1.66675 3.16667V14.8333C1.66675 15.2754 1.84234 15.6993 2.1549 16.0118C2.46746 16.3244 2.89139 16.5 3.33341 16.5H11.6667C12.1088 16.5 12.5327 16.3244 12.8453 16.0118C13.1578 15.6993 13.3334 15.2754 13.3334 14.8333V5.66667M9.16675 1.5L13.3334 5.66667M5.00008 13.1667H10.0001M5.00008 9.83333H10.0001" stroke="#0033AD" stroke-width="2" stroke-linecap="round" stroke-linejoin="round"/>
</svg>
