<svg width="20" height="20" viewBox="0 0 20 20" fill="none" xmlns="http://www.w3.org/2000/svg">
<path d="M12.5 8.33333L16.2942 6.43666C16.4212 6.37319 16.5623 6.34323 16.7042 6.34962C16.846 6.35601 16.9839 6.39854 17.1047 6.47317C17.2255 6.5478 17.3252 6.65206 17.3944 6.77606C17.4636 6.90005 17.4999 7.03967 17.5 7.18166V12.8183C17.4999 12.9603 17.4636 13.0999 17.3944 13.2239C17.3252 13.3479 17.2255 13.4522 17.1047 13.5268C16.9839 13.6015 16.846 13.644 16.7042 13.6504C16.5623 13.6568 16.4212 13.6268 16.2942 13.5633L12.5 11.6667V8.33333Z" stroke="#809CDE" stroke-width="2" stroke-linecap="round" stroke-linejoin="round"/>
<path d="M2.5 6.66667C2.5 6.22464 2.67559 5.80072 2.98816 5.48816C3.30072 5.17559 3.72464 5 4.16667 5H10.8333C11.2754 5 11.6993 5.17559 12.0118 5.48816C12.3244 5.80072 12.5 6.22464 12.5 6.66667V13.3333C12.5 13.7754 12.3244 14.1993 12.0118 14.5118C11.6993 14.8244 11.2754 15 10.8333 15H4.16667C3.72464 15 3.30072 14.8244 2.98816 14.5118C2.67559 14.1993 2.5 13.7754 2.5 13.3333V6.66667Z" stroke="#809CDE" stroke-width="2" stroke-linecap="round" stroke-linejoin="round"/>
</svg>
