<svg width="20" height="20" viewBox="0 0 20 20" fill="none" xmlns="http://www.w3.org/2000/svg">
<path d="M5.83341 11.6668C4.9661 12.1565 4.26479 12.894 3.81937 13.7848C3.37396 14.6756 3.20474 15.6792 3.33341 16.6668C4.32104 16.7955 5.3246 16.6263 6.21543 16.1809C7.10626 15.7355 7.84377 15.0341 8.33341 14.1668M3.33341 10.8335C4.81933 11.0101 6.20262 11.6814 7.26071 12.7395C8.3188 13.7976 8.99016 15.1809 9.16675 16.6668C9.90335 16.2422 10.5195 15.6367 10.9569 14.9076C11.3944 14.1785 11.6387 13.3499 11.6667 12.5002C13.066 12.0079 14.2879 11.1118 15.1779 9.92517C16.0679 8.73852 16.586 7.31461 16.6667 5.8335C16.6667 5.17045 16.4034 4.53457 15.9345 4.06573C15.4657 3.59689 14.8298 3.3335 14.1667 3.3335C12.6856 3.41425 11.2617 3.93238 10.0751 4.82237C8.88842 5.71236 7.99232 6.93424 7.50008 8.3335C6.6503 8.36156 5.82171 8.60586 5.09263 9.04331C4.36356 9.48075 3.75807 10.0969 3.33341 10.8335ZM11.6667 7.50016C11.6667 7.72118 11.7545 7.93314 11.9108 8.08942C12.0671 8.2457 12.2791 8.3335 12.5001 8.3335C12.7211 8.3335 12.9331 8.2457 13.0893 8.08942C13.2456 7.93314 13.3334 7.72118 13.3334 7.50016C13.3334 7.27915 13.2456 7.06719 13.0893 6.91091C12.9331 6.75463 12.7211 6.66683 12.5001 6.66683C12.2791 6.66683 12.0671 6.75463 11.9108 6.91091C11.7545 7.06719 11.6667 7.27915 11.6667 7.50016Z" stroke="#73828C" stroke-width="2" stroke-linecap="round" stroke-linejoin="round"/>
</svg>
