<svg width="20" height="20" viewBox="0 0 20 20" fill="none" xmlns="http://www.w3.org/2000/svg">
<path d="M5.83333 10.8331V4.16645C5.83333 3.94543 5.74554 3.73347 5.58926 3.57719C5.43298 3.42091 5.22101 3.33311 5 3.33311H3.33333C3.11232 3.33311 2.90036 3.42091 2.74408 3.57719C2.5878 3.73347 2.5 3.94543 2.5 4.16645V9.99978C2.5 10.2208 2.5878 10.4328 2.74408 10.589C2.90036 10.7453 3.11232 10.8331 3.33333 10.8331H5.83333ZM5.83333 10.8331C6.71739 10.8331 7.56523 11.1843 8.19036 11.8094C8.81548 12.4345 9.16667 13.2824 9.16667 14.1664V14.9998C9.16667 15.4418 9.34226 15.8657 9.65482 16.1783C9.96738 16.4909 10.3913 16.6664 10.8333 16.6664C11.2754 16.6664 11.6993 16.4909 12.0118 16.1783C12.3244 15.8657 12.5 15.4418 12.5 14.9998V10.8331H15C15.442 10.8331 15.866 10.6575 16.1785 10.345C16.4911 10.0324 16.6667 9.60848 16.6667 9.16645L15.8333 4.99978C15.7135 4.48855 15.4861 4.04958 15.1855 3.74898C14.8849 3.44838 14.5274 3.30243 14.1667 3.33311H8.33333C7.67029 3.33311 7.03441 3.59651 6.56557 4.06535C6.09673 4.53419 5.83333 5.17007 5.83333 5.83311" stroke="#73828C" stroke-width="2" stroke-linecap="round" stroke-linejoin="round"/>
</svg>
