<svg width="20" height="20" viewBox="0 0 20 20" fill="none" xmlns="http://www.w3.org/2000/svg">
<path d="M5.83333 9.16683V15.8335C5.83333 16.0545 5.74554 16.2665 5.58926 16.4228C5.43298 16.579 5.22101 16.6668 5 16.6668H3.33333C3.11232 16.6668 2.90036 16.579 2.74408 16.4228C2.5878 16.2665 2.5 16.0545 2.5 15.8335V10.0002C2.5 9.77915 2.5878 9.56719 2.74408 9.41091C2.90036 9.25463 3.11232 9.16683 3.33333 9.16683H5.83333ZM5.83333 9.16683C6.71739 9.16683 7.56523 8.81564 8.19036 8.19052C8.81548 7.5654 9.16667 6.71755 9.16667 5.8335V5.00016C9.16667 4.55814 9.34226 4.13421 9.65482 3.82165C9.96738 3.50909 10.3913 3.3335 10.8333 3.3335C11.2754 3.3335 11.6993 3.50909 12.0118 3.82165C12.3244 4.13421 12.5 4.55814 12.5 5.00016V9.16683H15C15.442 9.16683 15.866 9.34243 16.1785 9.65499C16.4911 9.96755 16.6667 10.3915 16.6667 10.8335L15.8333 15.0002C15.7135 15.5114 15.4861 15.9504 15.1855 16.251C14.8849 16.5516 14.5274 16.6975 14.1667 16.6668H8.33333C7.67029 16.6668 7.03441 16.4034 6.56557 15.9346C6.09673 15.4658 5.83333 14.8299 5.83333 14.1668" stroke="#73828C" stroke-width="2" stroke-linecap="round" stroke-linejoin="round"/>
</svg>
