<svg width="24" height="24" viewBox="0 0 24 24" fill="none" xmlns="http://www.w3.org/2000/svg">
<path d="M10.586 3L3.99999 9.586C3.72012 9.86569 3.52951 10.2221 3.45225 10.6102C3.375 10.9982 3.41458 11.4005 3.56599 11.766L3.63399 11.911C3.8017 12.2388 4.05664 12.5139 4.37071 12.706C4.68478 12.8982 5.0458 12.9999 5.41399 13H7.99999V15C7.99999 15.2652 8.10535 15.5196 8.29288 15.7071C8.48042 15.8946 8.73477 16 8.99999 16H15L15.117 15.993C15.3602 15.9643 15.5845 15.8474 15.7473 15.6644C15.91 15.4813 16 15.2449 16 15L15.999 13H18.586C18.9815 12.9999 19.3681 12.8826 19.6969 12.6628C20.0257 12.443 20.282 12.1307 20.4333 11.7653C20.5847 11.3999 20.6243 10.9978 20.5472 10.6099C20.47 10.222 20.2796 9.86571 20 9.586L13.414 3C13.0389 2.62506 12.5303 2.41443 12 2.41443C11.4697 2.41443 10.961 2.62506 10.586 3Z" fill="#1E1F27"/>
<path d="M15 20C15.2549 20.0003 15.5 20.0979 15.6854 20.2728C15.8707 20.4478 15.9822 20.687 15.9972 20.9414C16.0121 21.1958 15.9293 21.4464 15.7657 21.6418C15.6021 21.8373 15.3701 21.9629 15.117 21.993L15 22H8.99999C8.74511 21.9997 8.49996 21.9021 8.31462 21.7272C8.12929 21.5522 8.01776 21.313 8.00282 21.0586C7.98788 20.8042 8.07066 20.5536 8.23426 20.3582C8.39785 20.1627 8.6299 20.0371 8.88299 20.007L8.99999 20H15Z" fill="#1E1F27"/>
<path d="M15 17C15.2549 17.0003 15.5 17.0979 15.6854 17.2728C15.8707 17.4478 15.9822 17.687 15.9972 17.9414C16.0121 18.1958 15.9293 18.4464 15.7657 18.6418C15.6021 18.8373 15.3701 18.9629 15.117 18.993L15 19H8.99999C8.74511 18.9997 8.49996 18.9021 8.31462 18.7272C8.12929 18.5522 8.01776 18.313 8.00282 18.0586C7.98788 17.8042 8.07066 17.5536 8.23426 17.3582C8.39785 17.1627 8.6299 17.0371 8.88299 17.007L8.99999 17H15Z" fill="#1E1F27"/>
<path d="M10.586 3L3.99999 9.586C3.72012 9.86569 3.52951 10.2221 3.45225 10.6102C3.375 10.9982 3.41458 11.4005 3.56599 11.766L3.63399 11.911C3.8017 12.2388 4.05664 12.5139 4.37071 12.706C4.68478 12.8982 5.0458 12.9999 5.41399 13H7.99999V15C7.99999 15.2652 8.10535 15.5196 8.29288 15.7071C8.48042 15.8946 8.73477 16 8.99999 16H15L15.117 15.993C15.3602 15.9643 15.5845 15.8474 15.7473 15.6644C15.91 15.4813 16 15.2449 16 15L15.999 13H18.586C18.9815 12.9999 19.3681 12.8826 19.6969 12.6628C20.0257 12.443 20.282 12.1307 20.4333 11.7653C20.5847 11.3999 20.6243 10.9978 20.5472 10.6099C20.47 10.222 20.2796 9.86571 20 9.586L13.414 3C13.0389 2.62506 12.5303 2.41443 12 2.41443C11.4697 2.41443 10.961 2.62506 10.586 3Z" stroke="#1E1F27"/>
<path d="M15 20C15.2549 20.0003 15.5 20.0979 15.6854 20.2728C15.8707 20.4478 15.9822 20.687 15.9972 20.9414C16.0121 21.1958 15.9293 21.4464 15.7657 21.6418C15.6021 21.8373 15.3701 21.9629 15.117 21.993L15 22H8.99999C8.74511 21.9997 8.49996 21.9021 8.31462 21.7272C8.12929 21.5522 8.01776 21.313 8.00282 21.0586C7.98788 20.8042 8.07066 20.5536 8.23426 20.3582C8.39785 20.1627 8.6299 20.0371 8.88299 20.007L8.99999 20H15Z" stroke="#1E1F27"/>
<path d="M15 17C15.2549 17.0003 15.5 17.0979 15.6854 17.2728C15.8707 17.4478 15.9822 17.687 15.9972 17.9414C16.0121 18.1958 15.9293 18.4464 15.7657 18.6418C15.6021 18.8373 15.3701 18.9629 15.117 18.993L15 19H8.99999C8.74511 18.9997 8.49996 18.9021 8.31462 18.7272C8.12929 18.5522 8.01776 18.313 8.00282 18.0586C7.98788 17.8042 8.07066 17.5536 8.23426 17.3582C8.39785 17.1627 8.6299 17.0371 8.88299 17.007L8.99999 17H15Z" stroke="#1E1F27"/>
</svg>
