<svg width="16" height="18" viewBox="0 0 16 18" fill="none" xmlns="http://www.w3.org/2000/svg">
<path d="M5.67948 13.1667V14C5.67948 14.663 5.94288 15.2989 6.41172 15.7678C6.88056 16.2366 7.51644 16.5 8.17948 16.5C8.84253 16.5 9.47841 16.2366 9.94725 15.7678C10.4161 15.2989 10.6795 14.663 10.6795 14V13.1667M6.51282 3.16667C6.51282 2.72464 6.68841 2.30072 7.00097 1.98816C7.31353 1.67559 7.73746 1.5 8.17948 1.5C8.62151 1.5 9.04543 1.67559 9.35799 1.98816C9.67056 2.30072 9.84615 2.72464 9.84615 3.16667C10.8032 3.61919 11.619 4.32361 12.2062 5.20442C12.7934 6.08523 13.1299 7.10923 13.1795 8.16667V10.6667C13.2422 11.1848 13.4257 11.6809 13.7152 12.1151C14.0046 12.5493 14.392 12.9095 14.8462 13.1667H1.51282C1.96693 12.9095 2.35433 12.5493 2.64381 12.1151C2.93329 11.6809 3.11677 11.1848 3.17948 10.6667V8.16667C3.22912 7.10923 3.56557 6.08523 4.15278 5.20442C4.73998 4.32361 5.55581 3.61919 6.51282 3.16667Z" stroke="#0033AD" stroke-width="2" stroke-linecap="round" stroke-linejoin="round"/>
</svg>
