<svg width="25" height="24" viewBox="0 0 25 24" fill="none" xmlns="http://www.w3.org/2000/svg">
<path d="M3.75 14.803C4.062 14.938 4.404 15.007 4.75 15C5.1395 15.0082 5.52512 14.9214 5.87358 14.7472C6.22203 14.5729 6.52283 14.3165 6.75 14C6.97717 13.6835 7.27797 13.4271 7.62642 13.2529C7.97488 13.0786 8.3605 12.9918 8.75 13C9.1395 12.9918 9.52512 13.0786 9.87358 13.2529C10.222 13.4271 10.5228 13.6835 10.75 14C10.9772 14.3165 11.278 14.5729 11.6264 14.7472C11.9749 14.9214 12.3605 15.0082 12.75 15C13.1395 15.0082 13.5251 14.9214 13.8736 14.7472C14.222 14.5729 14.5228 14.3165 14.75 14C14.9772 13.6835 15.278 13.4271 15.6264 13.2529C15.9749 13.0786 16.3605 12.9918 16.75 13C17.1395 12.9918 17.5251 13.0786 17.8736 13.2529C18.222 13.4271 18.5228 13.6835 18.75 14C18.9772 14.3165 19.278 14.5729 19.6264 14.7472C19.9749 14.9214 20.3605 15.0082 20.75 15C21.1 15.007 21.442 14.938 21.75 14.803M3.75 20H21.75V12C21.75 11.2044 21.4339 10.4413 20.8713 9.87868C20.3087 9.31607 19.5456 9 18.75 9H6.75C5.95435 9 5.19129 9.31607 4.62868 9.87868C4.06607 10.4413 3.75 11.2044 3.75 12V20ZM12.75 4L14.215 5.638C14.4764 5.91903 14.6515 6.26935 14.7192 6.64715C14.787 7.02495 14.7446 7.41426 14.5971 7.76862C14.4496 8.12298 14.2033 8.42742 13.8875 8.64561C13.5718 8.86379 13.1999 8.98651 12.8162 8.99911C12.4326 9.0117 12.0535 8.91365 11.7241 8.71665C11.3947 8.51964 11.1289 8.23202 10.9585 7.88809C10.7881 7.54417 10.7203 7.15848 10.7631 6.77705C10.8059 6.39563 10.9576 6.03458 11.2 5.737L12.75 4Z" stroke="#2E3438" stroke-width="2" stroke-linecap="round" stroke-linejoin="round"/>
</svg>
