<svg width="20" height="20" viewBox="0 0 20 20" fill="none" xmlns="http://www.w3.org/2000/svg">
<path d="M8.33333 6.66671V7.66671V6.66671ZM12.3333 6.66671C12.3333 7.21899 12.781 7.66671 13.3333 7.66671C13.8856 7.66671 14.3333 7.21899 14.3333 6.66671H12.3333ZM11.6667 3.33337V2.33337V3.33337ZM4.99999 3.33337V2.33337V3.33337ZM3.33333 5.00004H2.33333H3.33333ZM3.33333 11.6667H2.33333H3.33333ZM6.66666 14.3334C7.21895 14.3334 7.66666 13.8857 7.66666 13.3334C7.66666 12.7811 7.21895 12.3334 6.66666 12.3334V14.3334ZM7.66666 8.33337C7.66666 8.15656 7.7369 7.98699 7.86192 7.86197L6.44771 6.44776C5.94761 6.94785 5.66666 7.62613 5.66666 8.33337H7.66666ZM7.86192 7.86197C7.98695 7.73695 8.15652 7.66671 8.33333 7.66671V5.66671C7.62608 5.66671 6.94781 5.94766 6.44771 6.44776L7.86192 7.86197ZM8.33333 7.66671H15V5.66671H8.33333V7.66671ZM15 7.66671C15.1768 7.66671 15.3464 7.73695 15.4714 7.86197L16.8856 6.44776C16.3855 5.94766 15.7072 5.66671 15 5.66671V7.66671ZM15.4714 7.86197C15.5964 7.98699 15.6667 8.15656 15.6667 8.33337H17.6667C17.6667 7.62613 17.3857 6.94785 16.8856 6.44776L15.4714 7.86197ZM15.6667 8.33337V15H17.6667V8.33337H15.6667ZM15.6667 15C15.6667 15.1769 15.5964 15.3464 15.4714 15.4714L16.8856 16.8857C17.3857 16.3856 17.6667 15.7073 17.6667 15H15.6667ZM15.4714 15.4714C15.3464 15.5965 15.1768 15.6667 15 15.6667V17.6667C15.7072 17.6667 16.3855 17.3858 16.8856 16.8857L15.4714 15.4714ZM15 15.6667H8.33333V17.6667H15V15.6667ZM8.33333 15.6667C8.15652 15.6667 7.98695 15.5965 7.86192 15.4714L6.44771 16.8857C6.94781 17.3858 7.62608 17.6667 8.33333 17.6667V15.6667ZM7.86192 15.4714C7.7369 15.3464 7.66666 15.1769 7.66666 15H5.66666C5.66666 15.7073 5.94761 16.3856 6.44771 16.8857L7.86192 15.4714ZM7.66666 15V8.33337H5.66666V15H7.66666ZM14.3333 6.66671V5.00004H12.3333V6.66671H14.3333ZM14.3333 5.00004C14.3333 4.2928 14.0524 3.61452 13.5523 3.11442L12.1381 4.52864C12.2631 4.65366 12.3333 4.82323 12.3333 5.00004H14.3333ZM13.5523 3.11442C13.0522 2.61433 12.3739 2.33337 11.6667 2.33337V4.33337C11.8435 4.33337 12.013 4.40361 12.1381 4.52864L13.5523 3.11442ZM11.6667 2.33337H4.99999V4.33337H11.6667V2.33337ZM4.99999 2.33337C4.29275 2.33337 3.61447 2.61433 3.11438 3.11442L4.52859 4.52864C4.65361 4.40361 4.82318 4.33337 4.99999 4.33337V2.33337ZM3.11438 3.11442C2.61428 3.61452 2.33333 4.2928 2.33333 5.00004H4.33333C4.33333 4.82323 4.40357 4.65366 4.52859 4.52864L3.11438 3.11442ZM2.33333 5.00004V11.6667H4.33333V5.00004H2.33333ZM2.33333 11.6667C2.33333 12.374 2.61428 13.0522 3.11438 13.5523L4.52859 12.1381C4.40357 12.0131 4.33333 11.8435 4.33333 11.6667H2.33333ZM3.11438 13.5523C3.61447 14.0524 4.29275 14.3334 4.99999 14.3334V12.3334C4.82318 12.3334 4.65361 12.2631 4.52859 12.1381L3.11438 13.5523ZM4.99999 14.3334H6.66666V12.3334H4.99999V14.3334Z" fill="#0033AD"/>
</svg>
