<svg width="25" height="24" viewBox="0 0 25 24" fill="none" xmlns="http://www.w3.org/2000/svg">
<path d="M5.75 16C6.28043 16 6.78914 16.2107 7.16421 16.5858C7.53929 16.9609 7.75 17.4696 7.75 18C7.75 18.5304 7.53929 19.0391 7.16421 19.4142C6.78914 19.7893 6.28043 20 5.75 20C5.21957 20 4.71086 19.7893 4.33579 19.4142C3.96071 19.0391 3.75 18.5304 3.75 18C3.75 17.4696 3.96071 16.9609 4.33579 16.5858C4.71086 16.2107 5.21957 16 5.75 16ZM5.75 16V11C5.75 9.67392 6.27678 8.40215 7.21447 7.46447C8.15215 6.52678 9.42392 6 10.75 6H13.75M19.75 8C19.2196 8 18.7109 7.78929 18.3358 7.41421C17.9607 7.03914 17.75 6.53043 17.75 6C17.75 5.46957 17.9607 4.96086 18.3358 4.58579C18.7109 4.21071 19.2196 4 19.75 4C20.2804 4 20.7891 4.21071 21.1642 4.58579C21.5393 4.96086 21.75 5.46957 21.75 6C21.75 6.53043 21.5393 7.03914 21.1642 7.41421C20.7891 7.78929 20.2804 8 19.75 8ZM19.75 8V13C19.75 14.3261 19.2232 15.5979 18.2855 16.5355C17.3479 17.4732 16.0761 18 14.75 18H11.75M11.75 18L14.75 15M11.75 18L14.75 21M13.75 6L10.75 3M13.75 6L10.75 9" stroke="#242232" stroke-width="2" stroke-linecap="round" stroke-linejoin="round"/>
</svg>
