<svg width="20" height="20" viewBox="0 0 20 20" fill="none" xmlns="http://www.w3.org/2000/svg">
<path d="M7.5 17C3.2 18.4 3.2 14.5 1.5 14M13.5 19V15.5C13.5 14.5 13.6 14.1 13 13.5C15.8 13.2 18.5 12.1 18.5 7.49995C18.4988 6.30492 18.0325 5.15726 17.2 4.29995C17.5905 3.26192 17.5545 2.11158 17.1 1.09995C17.1 1.09995 16 0.799951 13.6 2.39995C11.5672 1.87054 9.43276 1.87054 7.4 2.39995C5 0.799951 3.9 1.09995 3.9 1.09995C3.44548 2.11158 3.40953 3.26192 3.8 4.29995C2.96745 5.15726 2.50122 6.30492 2.5 7.49995C2.5 12.1 5.2 13.2 8 13.5C7.4 14.1 7.4 14.7 7.5 15.5V19" stroke="#F1F2F3" stroke-width="2" stroke-linecap="round" stroke-linejoin="round"/>
</svg>
