<svg width="15" height="20" viewBox="0 0 15 20" fill="none" xmlns="http://www.w3.org/2000/svg">
<g clip-path="url(#clip0_748_928)">
<g clip-path="url(#clip1_748_928)">
<path d="M2.47216 15.729H12.6945C13.782 15.729 14.6667 14.8528 14.6667 13.7759V3.61963C14.6667 2.54268 13.782 1.6665 12.6945 1.6665H2.47216C1.38471 1.6665 0.5 2.54268 0.5 3.61963V16.38C0.5 17.457 1.38471 18.3332 2.47216 18.3332H12.0371H12.6945C13.782 18.3332 14.6667 17.457 14.6667 16.38V16.3784C14.1169 16.788 13.4339 17.0311 12.6945 17.0311H12.0371H2.47216C2.10968 17.0311 1.81477 16.739 1.81477 16.38C1.81477 16.0211 2.10968 15.729 2.47216 15.729ZM1.81477 3.61963C1.81477 3.26064 2.10968 2.96859 2.47216 2.96859H12.6945C13.057 2.96859 13.3519 3.26064 13.3519 3.61963V13.7759C13.3519 14.1349 13.057 14.4269 12.6945 14.4269H2.47216C2.24178 14.4269 2.02047 14.4662 1.81477 14.5385V3.61963ZM6.48221 7.15413H5.16744C5.16744 6.48623 5.45649 5.84694 5.96051 5.4001C6.47113 4.94736 7.15804 4.73096 7.84523 4.80654C8.94613 4.92754 9.83261 5.80319 9.95311 6.8887C10.063 7.87874 9.47674 8.58916 9.0262 9.0374C8.91023 9.15277 8.80321 9.25384 8.70878 9.34307C8.27921 9.7488 8.22448 9.81703 8.22448 10.0974V10.13H6.90971V10.0973C6.90971 9.24294 7.32294 8.85267 7.80142 8.40075C7.89438 8.31296 7.99052 8.22217 8.09438 8.11882C8.51896 7.69639 8.68399 7.37106 8.64626 7.03096C8.59242 6.54626 8.1946 6.15501 7.70025 6.10068C7.37991 6.06559 7.0733 6.16117 6.83746 6.37028C6.60836 6.57334 6.48221 6.85173 6.48221 7.15413ZM6.90951 11.1066H8.22428V12.4087H6.90951V11.1066Z" fill="#FF640A"/>
</g>
</g>
<defs>
<clipPath id="clip0_748_928">
<rect width="15" height="20" fill="white"/>
</clipPath>
<clipPath id="clip1_748_928">
<rect width="15" height="18" fill="white" transform="translate(0 1)"/>
</clipPath>
</defs>
</svg>