<svg width="19" height="18" viewBox="0 0 19 18" fill="none" xmlns="http://www.w3.org/2000/svg">
<path d="M14 4.5V4.51M1.5 5C1.5 3.93913 1.92143 2.92172 2.67157 2.17157C3.42172 1.42143 4.43913 1 5.5 1H13.5C14.5609 1 15.5783 1.42143 16.3284 2.17157C17.0786 2.92172 17.5 3.93913 17.5 5V13C17.5 14.0609 17.0786 15.0783 16.3284 15.8284C15.5783 16.5786 14.5609 17 13.5 17H5.5C4.43913 17 3.42172 16.5786 2.67157 15.8284C1.92143 15.0783 1.5 14.0609 1.5 13V5ZM6.5 9C6.5 9.79565 6.81607 10.5587 7.37868 11.1213C7.94129 11.6839 8.70435 12 9.5 12C10.2956 12 11.0587 11.6839 11.6213 11.1213C12.1839 10.5587 12.5 9.79565 12.5 9C12.5 8.20435 12.1839 7.44129 11.6213 6.87868C11.0587 6.31607 10.2956 6 9.5 6C8.70435 6 7.94129 6.31607 7.37868 6.87868C6.81607 7.44129 6.5 8.20435 6.5 9Z" stroke="#F1F2F3" stroke-width="2" stroke-linecap="round" stroke-linejoin="round"/>
</svg>
