<svg width="20" height="20" viewBox="0 0 20 20" fill="none" xmlns="http://www.w3.org/2000/svg">
<path d="M7.50002 12.5004L12.5 7.50042M9.16669 5.00042L9.55252 4.55375C10.334 3.77236 11.3939 3.33342 12.4991 3.3335C13.6042 3.33357 14.664 3.77266 15.4454 4.55417C16.2268 5.33567 16.6658 6.39558 16.6657 7.50071C16.6656 8.60585 16.2265 9.66569 15.445 10.4471L15 10.8338M10.8334 15.0004L10.5025 15.4454C9.71191 16.2272 8.64486 16.6657 7.53295 16.6657C6.42105 16.6657 5.354 16.2272 4.56337 15.4454C4.17367 15.0601 3.86428 14.6013 3.65313 14.0955C3.44198 13.5898 3.33325 13.0472 3.33325 12.4992C3.33325 11.9511 3.44198 11.4085 3.65313 10.9028C3.86428 10.3971 4.17367 9.93825 4.56337 9.55292L5.00004 9.16708" stroke="#0033AD" stroke-width="2" stroke-linecap="round" stroke-linejoin="round"/>
</svg>
