<svg width="20" height="20" viewBox="0 0 20 20" fill="none" xmlns="http://www.w3.org/2000/svg">
<path d="M7.5 2.5V1.5C7.09997 1.5 6.73843 1.7384 6.58085 2.10608L7.5 2.5ZM12.5 2.5L13.4191 2.10608C13.2616 1.7384 12.9 1.5 12.5 1.5V2.5ZM15 8.33333L15.3162 9.28202C15.5815 9.19358 15.7977 8.9981 15.9122 8.74299C16.0268 8.48788 16.0293 8.19645 15.9191 7.93941L15 8.33333ZM5 8.33333L4.08085 7.93941C3.97069 8.19645 3.9732 8.48788 4.08776 8.74299C4.20232 8.9981 4.41847 9.19358 4.68377 9.28202L5 8.33333ZM11.5637 9.51779C11.7576 10.0349 12.334 10.2969 12.8511 10.103C13.3682 9.90908 13.6302 9.33266 13.4363 8.81554L11.5637 9.51779ZM10.9363 2.14888C10.7424 1.63176 10.166 1.36975 9.64888 1.56367C9.13176 1.75759 8.86975 2.334 9.06367 2.85112L10.9363 2.14888ZM10 16.25L10.4472 15.3556C10.1657 15.2148 9.83431 15.2148 9.55279 15.3556L10 16.25ZM7.5 17.5L6.51005 17.3586C6.45745 17.7268 6.61355 18.0938 6.91529 18.3112C7.21703 18.5287 7.61454 18.5608 7.94721 18.3944L7.5 17.5ZM7.91667 14.5833L8.90662 14.7248C8.95113 14.4132 8.84634 14.0988 8.62377 13.8762L7.91667 14.5833ZM6.25 12.9167L6.0856 11.9303C5.71611 11.9919 5.41202 12.2548 5.2977 12.6115C5.18339 12.9682 5.27802 13.3589 5.54289 13.6238L6.25 12.9167ZM8.75 12.5L8.9144 13.4864C9.22998 13.4338 9.50135 13.2334 9.64443 12.9472L8.75 12.5ZM11.25 12.5L10.3556 12.9472C10.4987 13.2334 10.77 13.4338 11.0856 13.4864L11.25 12.5ZM13.75 12.9167L14.4571 13.6238C14.722 13.3589 14.8166 12.9682 14.7023 12.6115C14.588 12.2548 14.2839 11.9919 13.9144 11.9303L13.75 12.9167ZM12.0833 14.5833L11.3762 13.8762C11.1537 14.0988 11.0489 14.4132 11.0934 14.7248L12.0833 14.5833ZM12.5 17.5L12.0528 18.3944C12.3855 18.5608 12.783 18.5287 13.0847 18.3112C13.3864 18.0938 13.5426 17.7268 13.4899 17.3586L12.5 17.5ZM7.5 3.5H12.5V1.5H7.5V3.5ZM11.5809 2.89392L14.0809 8.72725L15.9191 7.93941L13.4191 2.10608L11.5809 2.89392ZM14.6838 7.38465L9.68377 9.05132L10.3162 10.9487L15.3162 9.28202L14.6838 7.38465ZM10.3162 9.05132L5.31623 7.38465L4.68377 9.28202L9.68377 10.9487L10.3162 9.05132ZM5.91915 8.72725L8.41914 2.89392L6.58085 2.10608L4.08085 7.93941L5.91915 8.72725ZM10.9487 9.68377L8.44868 2.18377L6.55132 2.81623L9.05132 10.3162L10.9487 9.68377ZM13.4363 8.81554L10.9363 2.14888L9.06367 2.85112L11.5637 9.51779L13.4363 8.81554ZM9.55279 15.3556L7.05279 16.6056L7.94721 18.3944L10.4472 17.1444L9.55279 15.3556ZM8.48995 17.6414L8.90662 14.7248L6.92672 14.4419L6.51005 17.3586L8.48995 17.6414ZM8.62377 13.8762L6.95711 12.2096L5.54289 13.6238L7.20956 15.2904L8.62377 13.8762ZM6.4144 13.9031L8.9144 13.4864L8.5856 11.5136L6.0856 11.9303L6.4144 13.9031ZM9.64443 12.9472L10.8944 10.4472L9.10557 9.55279L7.85557 12.0528L9.64443 12.9472ZM9.10557 10.4472L10.3556 12.9472L12.1444 12.0528L10.8944 9.55279L9.10557 10.4472ZM11.0856 13.4864L13.5856 13.9031L13.9144 11.9303L11.4144 11.5136L11.0856 13.4864ZM13.0429 12.2096L11.3762 13.8762L12.7904 15.2904L14.4571 13.6238L13.0429 12.2096ZM11.0934 14.7248L11.5101 17.6414L13.4899 17.3586L13.0733 14.4419L11.0934 14.7248ZM12.9472 16.6056L10.4472 15.3556L9.55279 17.1444L12.0528 18.3944L12.9472 16.6056Z" fill="#0033AD"/>
</svg>
