<svg width="25" height="24" viewBox="0 0 25 24" fill="none" xmlns="http://www.w3.org/2000/svg">
<path d="M9.25 4V22M13.25 8H15.25M13.25 12H15.25M6.25 4H17.25C17.7804 4 18.2891 4.21071 18.6642 4.58579C19.0393 4.96086 19.25 5.46957 19.25 6V18C19.25 18.5304 19.0393 19.0391 18.6642 19.4142C18.2891 19.7893 17.7804 20 17.25 20H6.25C5.98478 20 5.73043 19.8946 5.54289 19.7071C5.35536 19.5196 5.25 19.2652 5.25 19V5C5.25 4.73478 5.35536 4.48043 5.54289 4.29289C5.73043 4.10536 5.98478 4 6.25 4Z" stroke="#001445" stroke-width="2" stroke-linecap="round" stroke-linejoin="round"/>
</svg>
