<svg width="24" height="24" viewBox="0 0 24 24" fill="none" xmlns="http://www.w3.org/2000/svg">
<path d="M15 7.00045L8.50001 13.5005C8.10218 13.8983 7.87869 14.4378 7.87869 15.0005C7.87869 15.5631 8.10218 16.1026 8.50001 16.5005C8.89783 16.8983 9.4374 17.1218 10 17.1218C10.5626 17.1218 11.1022 16.8983 11.5 16.5005L18 10.0005C18.7957 9.2048 19.2427 8.12567 19.2427 7.00045C19.2427 5.87523 18.7957 4.7961 18 4.00045C17.2044 3.2048 16.1252 2.75781 15 2.75781C13.8748 2.75781 12.7957 3.2048 12 4.00045L5.50001 10.5005C4.30653 11.6939 3.63605 13.3126 3.63605 15.0005C3.63605 16.6883 4.30653 18.307 5.50001 19.5005C6.69348 20.6939 8.31218 21.3644 10 21.3644C11.6878 21.3644 13.3065 20.6939 14.5 19.5005L21 13.0005" stroke="#1E1F27" stroke-width="2" stroke-linecap="round" stroke-linejoin="round"/>
</svg>
