<svg width="25" height="24" viewBox="0 0 25 24" fill="none" xmlns="http://www.w3.org/2000/svg">
<path d="M20.4331 13.041C20.2442 14.481 19.667 15.8424 18.7632 16.9792C17.8595 18.116 16.6633 18.9854 15.303 19.4941C13.9427 20.0027 12.4696 20.1315 11.0417 19.8666C9.6138 19.6017 8.28492 18.9531 7.19761 17.9904C6.1103 17.0276 5.30557 15.787 4.86973 14.4017C4.43389 13.0164 4.38338 11.5385 4.72362 10.1266C5.06385 8.71476 5.782 7.42214 6.80104 6.3874C7.82007 5.35266 9.10156 4.61483 10.5081 4.25304C14.4071 3.25304 18.4431 5.26004 19.9331 9.00004M20.5001 4.00003V9.00003H15.5001" stroke="white" stroke-width="2" stroke-linecap="round" stroke-linejoin="round"/>
</svg>
