<svg width="25" height="24" viewBox="0 0 25 24" fill="none" xmlns="http://www.w3.org/2000/svg">
<path d="M6.75 12V10C6.75 8.4087 7.38214 6.88258 8.50736 5.75736C9.63258 4.63214 11.1587 4 12.75 4C14.3413 4 15.8674 4.63214 16.9926 5.75736C18.1179 6.88258 18.75 8.4087 18.75 10V12M18.75 12L15.75 9M18.75 12L21.75 9M4.75 18C4.75 18.5304 4.96071 19.0391 5.33579 19.4142C5.71086 19.7893 6.21957 20 6.75 20C7.28043 20 7.78914 19.7893 8.16421 19.4142C8.53929 19.0391 8.75 18.5304 8.75 18C8.75 17.4696 8.53929 16.9609 8.16421 16.5858C7.78914 16.2107 7.28043 16 6.75 16C6.21957 16 5.71086 16.2107 5.33579 16.5858C4.96071 16.9609 4.75 17.4696 4.75 18ZM16.75 18C16.75 18.5304 16.9607 19.0391 17.3358 19.4142C17.7109 19.7893 18.2196 20 18.75 20C19.2804 20 19.7891 19.7893 20.1642 19.4142C20.5393 19.0391 20.75 18.5304 20.75 18C20.75 17.4696 20.5393 16.9609 20.1642 16.5858C19.7891 16.2107 19.2804 16 18.75 16C18.2196 16 17.7109 16.2107 17.3358 16.5858C16.9607 16.9609 16.75 17.4696 16.75 18Z" stroke="#242232" stroke-width="2" stroke-linecap="round" stroke-linejoin="round"/>
</svg>
