<svg width="24" height="24" viewBox="0 0 24 24" fill="none" xmlns="http://www.w3.org/2000/svg">
<circle cx="12" cy="12" r="11" fill="#FFC14C"/>
<path d="M5.68213 17.4199C5.95026 16.5275 6.49893 15.7453 7.24673 15.1893C7.99453 14.6333 8.90163 14.3332 9.83346 14.3335H14.1668C15.0998 14.3332 16.008 14.634 16.7564 15.1913C17.5047 15.7485 18.0532 16.5324 18.3203 17.4264M8.75013 7.8335C8.75013 8.69545 9.09254 9.5221 9.70203 10.1316C10.3115 10.7411 11.1382 11.0835 12.0001 11.0835C12.8621 11.0835 13.6887 10.7411 14.2982 10.1316C14.9077 9.5221 15.2501 8.69545 15.2501 7.8335C15.2501 6.97154 14.9077 6.14489 14.2982 5.5354C13.6887 4.92591 12.8621 4.5835 12.0001 4.5835C11.1382 4.5835 10.3115 4.92591 9.70203 5.5354C9.09254 6.14489 8.75013 6.97154 8.75013 7.8335Z" stroke="white" stroke-width="1.5" stroke-linecap="round" stroke-linejoin="round"/>
</svg>