<svg width="48" height="48" viewBox="0 0 48 48" fill="none" xmlns="http://www.w3.org/2000/svg">
<circle cx="24" cy="24" r="22" fill="white"/>
<path d="M10.646 34.624C10.5268 35.0207 10.7518 35.4389 11.1484 35.5581C11.5451 35.6773 11.9633 35.4523 12.0825 35.0556L10.646 34.624ZM19.6669 28.667L19.6667 29.417H19.6669V28.667ZM28.3336 28.667V29.417H28.3339L28.3336 28.667ZM35.922 35.0675C36.0405 35.4644 36.4584 35.69 36.8553 35.5714C37.2522 35.4529 37.4778 35.035 37.3592 34.6381L35.922 35.0675ZM16.7503 15.667C16.7503 17.5898 17.5141 19.4339 18.8737 20.7935L19.9344 19.7329C18.8561 18.6545 18.2503 17.192 18.2503 15.667H16.7503ZM18.8737 20.7935C20.2334 22.1532 22.0774 22.917 24.0003 22.917V21.417C22.4753 21.417 21.0127 20.8112 19.9344 19.7329L18.8737 20.7935ZM24.0003 22.917C25.9231 22.917 27.7671 22.1532 29.1268 20.7935L28.0661 19.7329C26.9878 20.8112 25.5253 21.417 24.0003 21.417V22.917ZM29.1268 20.7935C30.4864 19.4339 31.2503 17.5898 31.2503 15.667H29.7503C29.7503 17.192 29.1445 18.6545 28.0661 19.7329L29.1268 20.7935ZM31.2503 15.667C31.2503 13.7442 30.4864 11.9001 29.1268 10.5405L28.0661 11.6011C29.1445 12.6795 29.7503 14.142 29.7503 15.667H31.2503ZM29.1268 10.5405C27.7671 9.18083 25.9231 8.41699 24.0003 8.41699V9.91699C25.5253 9.91699 26.9878 10.5228 28.0661 11.6011L29.1268 10.5405ZM24.0003 8.41699C22.0774 8.41699 20.2334 9.18083 18.8737 10.5405L19.9344 11.6011C21.0127 10.5228 22.4753 9.91699 24.0003 9.91699V8.41699ZM18.8737 10.5405C17.5141 11.9001 16.7503 13.7442 16.7503 15.667H18.2503C18.2503 14.142 18.8561 12.6795 19.9344 11.6011L18.8737 10.5405ZM12.0825 35.0556C12.5724 33.4253 13.5748 31.9962 14.9409 30.9805L14.046 29.7767C12.4209 30.9849 11.2287 32.6847 10.646 34.624L12.0825 35.0556ZM14.9409 30.9805C16.3071 29.9648 17.9643 29.4165 19.6667 29.417L19.6671 27.917C17.6422 27.9164 15.671 28.5686 14.046 29.7767L14.9409 30.9805ZM19.6669 29.417H28.3336V27.917H19.6669V29.417ZM28.3339 29.417C30.0384 29.4164 31.6977 29.966 33.0648 30.9841L33.9607 29.781C32.3345 28.57 30.3609 27.9163 28.3333 27.917L28.3339 29.417ZM33.0648 30.9841C34.432 32.0021 35.434 33.4343 35.922 35.0675L37.3592 34.6381C36.7788 32.6954 35.5869 30.9919 33.9607 29.781L33.0648 30.9841Z" fill="#809CDE"/>
</svg>
