<svg width="20" height="20" viewBox="0 0 20 20" fill="none" xmlns="http://www.w3.org/2000/svg">
<path d="M5 17.5V15.8333C5 14.9493 5.35119 14.1014 5.97631 13.4763C6.60143 12.8512 7.44928 12.5 8.33333 12.5H11.25M18.3333 18.3333L14.1667 14.1667M14.1667 18.3333L18.3333 14.1667M6.66667 5.83333C6.66667 6.71739 7.01786 7.56524 7.64298 8.19036C8.2681 8.81548 9.11595 9.16667 10 9.16667C10.8841 9.16667 11.7319 8.81548 12.357 8.19036C12.9821 7.56524 13.3333 6.71739 13.3333 5.83333C13.3333 4.94928 12.9821 4.10143 12.357 3.47631C11.7319 2.85119 10.8841 2.5 10 2.5C9.11595 2.5 8.2681 2.85119 7.64298 3.47631C7.01786 4.10143 6.66667 4.94928 6.66667 5.83333Z" stroke="#242232" stroke-width="2" stroke-linecap="round" stroke-linejoin="round"/>
</svg>
