<svg width="20" height="20" viewBox="0 0 20 20" fill="none" xmlns="http://www.w3.org/2000/svg">
<g clip-path="url(#clip0_748_916)">
<circle cx="10" cy="9.99992" r="9.16667" fill="#FF640A"/>
<path d="M4.73511 14.5166C4.95855 13.7729 5.41577 13.1211 6.03894 12.6578C6.66211 12.1944 7.41802 11.9444 8.19455 11.9446H11.8057C12.5832 11.9443 13.34 12.195 13.9637 12.6594C14.5873 13.1238 15.0443 13.777 15.2669 14.522M7.29177 6.52791C7.29177 7.24621 7.57712 7.93508 8.08503 8.44299C8.59294 8.95091 9.28181 9.23625 10.0001 9.23625C10.7184 9.23625 11.4073 8.95091 11.9152 8.44299C12.4231 7.93508 12.7084 7.24621 12.7084 6.52791C12.7084 5.80962 12.4231 5.12074 11.9152 4.61283C11.4073 4.10492 10.7184 3.81958 10.0001 3.81958C9.28181 3.81958 8.59294 4.10492 8.08503 4.61283C7.57712 5.12074 7.29177 5.80962 7.29177 6.52791Z" stroke="white" stroke-width="1.5" stroke-linecap="round" stroke-linejoin="round"/>
</g>
<defs>
<clipPath id="clip0_748_916">
<rect width="20" height="20" fill="white"/>
</clipPath>
</defs>
</svg>
