<svg width="25" height="24" viewBox="0 0 25 24" fill="none" xmlns="http://www.w3.org/2000/svg">
<path d="M8.75 21V20C8.75 19.4696 8.96071 18.9609 9.33579 18.5858C9.71086 18.2107 10.2196 18 10.75 18H14.75C15.2804 18 15.7891 18.2107 16.1642 18.5858C16.5393 18.9609 16.75 19.4696 16.75 20V21M17.75 10H19.75C20.2804 10 20.7891 10.2107 21.1642 10.5858C21.5393 10.9609 21.75 11.4696 21.75 12V13M3.75 13V12C3.75 11.4696 3.96071 10.9609 4.33579 10.5858C4.71086 10.2107 5.21957 10 5.75 10H7.75M10.75 13C10.75 13.5304 10.9607 14.0391 11.3358 14.4142C11.7109 14.7893 12.2196 15 12.75 15C13.2804 15 13.7891 14.7893 14.1642 14.4142C14.5393 14.0391 14.75 13.5304 14.75 13C14.75 12.4696 14.5393 11.9609 14.1642 11.5858C13.7891 11.2107 13.2804 11 12.75 11C12.2196 11 11.7109 11.2107 11.3358 11.5858C10.9607 11.9609 10.75 12.4696 10.75 13ZM15.75 5C15.75 5.53043 15.9607 6.03914 16.3358 6.41421C16.7109 6.78929 17.2196 7 17.75 7C18.2804 7 18.7891 6.78929 19.1642 6.41421C19.5393 6.03914 19.75 5.53043 19.75 5C19.75 4.46957 19.5393 3.96086 19.1642 3.58579C18.7891 3.21071 18.2804 3 17.75 3C17.2196 3 16.7109 3.21071 16.3358 3.58579C15.9607 3.96086 15.75 4.46957 15.75 5ZM5.75 5C5.75 5.53043 5.96071 6.03914 6.33579 6.41421C6.71086 6.78929 7.21957 7 7.75 7C8.28043 7 8.78914 6.78929 9.16421 6.41421C9.53929 6.03914 9.75 5.53043 9.75 5C9.75 4.46957 9.53929 3.96086 9.16421 3.58579C8.78914 3.21071 8.28043 3 7.75 3C7.21957 3 6.71086 3.21071 6.33579 3.58579C5.96071 3.96086 5.75 4.46957 5.75 5Z" stroke="#001445" stroke-width="2" stroke-linecap="round" stroke-linejoin="round"/>
</svg>
