<svg width="477" height="115" viewBox="0 0 477 115" fill="none" xmlns="http://www.w3.org/2000/svg">
<mask id="mask0_1_77" style="mask-type:luminance" maskUnits="userSpaceOnUse" x="0" y="0" width="113" height="99">
<path d="M0 99.0001L113 99.0001L113 6.10352e-05L0 6.10352e-05L0 99.0001Z" fill="white"/>
</mask>
<g mask="url(#mask0_1_77)">
<path d="M27.8117 98.4852L7.62413 63.293C7.22929 62.6047 7.72423 61.7485 8.50837 61.7485H11.2835C11.6505 61.7485 11.9842 61.9443 12.1677 62.2633L30.3809 94.0078C30.5646 94.3268 30.9038 94.5228 31.2651 94.5228H50.6462C51.0135 94.5228 51.3471 94.7186 51.5307 95.0376L52.921 97.4555C53.3157 98.1438 52.8208 98.9999 52.0368 98.9999H28.6959C28.3288 98.9999 27.9952 98.8042 27.8117 98.4852Z" fill="#242232"/>
<path d="M57.2587 98.1708L45.5909 77.8266C45.1962 77.1383 45.6911 76.2821 46.4755 76.2821H49.2505C49.6175 76.2821 49.9511 76.4779 50.1347 76.7968L59.8281 93.6876C60.0115 94.0066 60.3508 94.2026 60.7123 94.2026H67.6584C68.0254 94.2026 68.359 94.3984 68.5426 94.7174L69.9329 97.1353C70.3276 97.8236 69.8328 98.68 69.0487 98.68H58.1429C57.7759 98.68 57.4421 98.484 57.2587 98.165V98.1708Z" fill="#242232"/>
<path d="M84.0817 98.6534H74.6051C74.2381 98.6534 73.9046 98.4573 73.7209 98.1384L68.9826 89.8834C68.7993 89.5644 68.7993 89.1726 68.9826 88.8537L73.7209 80.5984C73.9046 80.2794 74.2435 80.0834 74.6051 80.0834H84.0817C84.4487 80.0834 84.7822 80.2794 84.9659 80.5984L89.7042 88.8537C89.8875 89.1726 89.8875 89.5644 89.7042 89.8834L84.9659 98.1384C84.7822 98.4573 84.443 98.6534 84.0817 98.6534Z" fill="#242232"/>
<path d="M112.861 49.7649L92.6735 84.9571C92.2784 85.6454 91.2941 85.6454 90.9048 84.9571L89.5145 82.5392C89.3312 82.2202 89.3312 81.8284 89.5145 81.5094L107.728 49.7649C107.911 49.4459 107.911 49.0541 107.728 48.7351L98.0345 31.8443C97.8509 31.5254 97.8509 31.1336 98.0345 30.8146L99.4248 28.3967C99.8195 27.7084 100.804 27.7084 101.193 28.3967L112.861 48.7351C113.044 49.0541 113.044 49.4459 112.861 49.7649Z" fill="#242232"/>
<path d="M97.8681 24.2553L86.2006 44.5992C85.8055 45.2878 84.8212 45.2878 84.4319 44.5992L83.0416 42.1816C82.8583 41.8626 82.8583 41.4708 83.0416 41.1518L92.735 24.2609C92.9184 23.9419 92.9184 23.5501 92.735 23.2311L89.2591 17.1755C89.0758 16.8565 89.0758 16.4647 89.2591 16.1457L90.6497 13.7279C91.0444 13.0395 92.0288 13.0395 92.4181 13.7279L97.8735 23.2311C98.0572 23.5501 98.0572 23.9419 97.8735 24.2609L97.8681 24.2553Z" fill="#242232"/>
<path d="M84.8715 0.644349L89.6098 8.89949C89.7935 9.21849 89.7935 9.61026 89.6098 9.92929L84.8715 18.1844C84.6882 18.5034 84.3489 18.6993 83.9873 18.6993H74.5111C74.1437 18.6993 73.8102 18.5034 73.6266 18.1844L68.8886 9.92929C68.7049 9.61026 68.7049 9.21849 68.8886 8.89949L73.6266 0.644352C73.8102 0.325338 74.1495 0.129456 74.5111 0.129456H83.9873C84.3544 0.129456 84.6882 0.325338 84.8715 0.644349Z" fill="#242232"/>
<path d="M28.4126 0.000222354L68.7933 0.000219278C69.5828 0.000219278 70.0723 0.856513 69.6775 1.54492L68.2873 3.96268C68.1036 4.28171 67.7643 4.47758 67.4027 4.47758H30.982C30.615 4.47758 30.2811 4.67345 30.0977 4.99248L20.4043 21.8833C20.2208 22.2023 19.8816 22.3982 19.5201 22.3982H16.745C15.9553 22.3982 15.4659 21.5419 15.8607 20.8535L27.5283 0.509526C27.7119 0.190514 28.0511 -0.00537109 28.4126 -0.00537109V0.000222354Z" fill="#242232"/>
<path d="M13.9597 25.8232H37.3004C38.0902 25.8232 38.5794 26.6795 38.1846 27.368L36.7944 29.7857C36.6107 30.1047 36.2715 30.3005 35.9102 30.3005H16.529C16.1619 30.3005 15.8283 30.4965 15.6447 30.8155L12.1689 36.871C11.9854 37.19 11.6462 37.3861 11.2847 37.3861H8.50957C7.71987 37.3861 7.23048 36.5296 7.62533 35.8413L13.0754 26.3381C13.2589 26.0191 13.5982 25.8232 13.9597 25.8232Z" fill="#242232"/>
<path d="M16.117 40.7L20.8552 48.9553C21.0388 49.2743 21.0388 49.6661 20.8552 49.985L16.117 58.24C15.9335 58.5593 15.5942 58.755 15.2328 58.755H5.75629C5.38925 58.755 5.05559 58.5593 4.87206 58.24L0.133828 49.985C-0.0496957 49.6661 -0.0496957 49.2743 0.133828 48.9553L4.87206 40.7C5.05559 40.3811 5.39483 40.1853 5.75629 40.1853H15.2328C15.5998 40.1853 15.9335 40.3811 16.117 40.7Z" fill="#242232"/>
<path d="M29.041 49.9342L42.1434 72.7744C42.3268 73.0933 42.666 73.2894 43.0276 73.2894H69.2324C69.5997 73.2894 69.9332 73.0933 70.1169 72.7744L83.2193 49.9342C83.4026 49.6153 83.4026 49.2235 83.2193 48.9045L70.1169 26.0643C69.9332 25.7453 69.594 25.5494 69.2324 25.5494H43.0276C42.6606 25.5494 42.3268 25.7453 42.1434 26.0643L29.041 48.9045C28.8575 49.2235 28.8575 49.6153 29.041 49.9342ZM43.1332 48.703L49.3787 37.8174C49.5621 37.4984 49.9013 37.3026 50.2629 37.3026H62.748C63.115 37.3026 63.4488 37.4984 63.6322 37.8174L69.8777 48.703C70.0611 49.0219 70.0611 49.4138 69.8777 49.7327L63.6322 60.6183C63.4488 60.9373 63.1096 61.1334 62.748 61.1334H50.2629C49.8959 61.1334 49.5621 60.9373 49.3787 60.6183L43.1332 49.7327C42.9498 49.4138 42.9498 49.0219 43.1332 48.703Z" fill="#242232"/>
</g>
<path d="M162.374 61.0909V96H152.897V69.8182H152.693L145.056 74.3864V66.3409L153.647 61.0909H162.374ZM207.173 96.4773C205.139 96.4773 203.207 96.1591 201.377 95.5227C199.559 94.875 197.946 93.858 196.536 92.4716C195.127 91.0852 194.019 89.2784 193.213 87.0511C192.417 84.8239 192.025 82.125 192.036 78.9545C192.048 76.125 192.411 73.5795 193.127 71.3182C193.855 69.0568 194.883 67.1307 196.213 65.5398C197.554 63.9489 199.156 62.733 201.019 61.892C202.883 61.0398 204.957 60.6136 207.241 60.6136C209.809 60.6136 212.071 61.108 214.025 62.0966C215.98 63.0852 217.536 64.4091 218.696 66.0682C219.866 67.7159 220.548 69.5341 220.741 71.5227H211.4C211.184 70.5341 210.684 69.8125 209.9 69.358C209.127 68.892 208.241 68.6591 207.241 68.6591C205.252 68.6591 203.792 69.5227 202.86 71.25C201.94 72.9773 201.468 75.25 201.446 78.0682H201.65C202.093 77 202.764 76.0852 203.661 75.3239C204.559 74.5625 205.605 73.9773 206.798 73.5682C207.991 73.1591 209.252 72.9545 210.582 72.9545C212.696 72.9545 214.542 73.4318 216.122 74.3864C217.713 75.3409 218.951 76.6477 219.838 78.3068C220.724 79.9659 221.161 81.8636 221.15 84C221.161 86.5 220.571 88.6875 219.377 90.5625C218.196 92.4375 216.554 93.892 214.451 94.9261C212.349 95.9602 209.923 96.4773 207.173 96.4773ZM207.105 89.3182C208.048 89.3182 208.883 89.1023 209.61 88.6705C210.349 88.2386 210.923 87.6477 211.332 86.8977C211.752 86.1477 211.957 85.2955 211.946 84.3409C211.957 83.375 211.752 82.5227 211.332 81.7841C210.923 81.0341 210.349 80.4432 209.61 80.0114C208.883 79.5795 208.048 79.3636 207.105 79.3636C206.411 79.3636 205.769 79.4886 205.179 79.7386C204.599 79.9773 204.093 80.3239 203.661 80.7784C203.23 81.2216 202.889 81.75 202.639 82.3636C202.4 82.9659 202.275 83.625 202.264 84.3409C202.275 85.2955 202.491 86.1477 202.911 86.8977C203.332 87.6477 203.906 88.2386 204.633 88.6705C205.36 89.1023 206.184 89.3182 207.105 89.3182ZM262.118 60.6136C264.152 60.6136 266.078 60.9375 267.896 61.5852C269.714 62.2216 271.322 63.2273 272.72 64.6023C274.129 65.9773 275.231 67.7727 276.027 69.9886C276.834 72.1932 277.243 74.8636 277.254 78C277.265 80.8636 276.907 83.4375 276.18 85.7216C275.464 87.9943 274.436 89.9318 273.095 91.5341C271.765 93.1364 270.163 94.3636 268.288 95.2159C266.424 96.0568 264.345 96.4773 262.049 96.4773C259.47 96.4773 257.203 95.983 255.248 94.9943C253.294 94.0057 251.737 92.6761 250.578 91.0057C249.419 89.3352 248.743 87.4773 248.549 85.4318H257.89C258.118 86.4886 258.618 87.2557 259.39 87.733C260.163 88.1989 261.049 88.4318 262.049 88.4318C264.049 88.4318 265.51 87.5682 266.43 85.8409C267.362 84.1023 267.834 81.7841 267.845 78.8864H267.64C267.197 79.9545 266.527 80.8693 265.629 81.6307C264.731 82.392 263.686 82.9773 262.493 83.3864C261.299 83.7955 260.038 84 258.709 84C256.606 84 254.765 83.5284 253.186 82.5852C251.606 81.6307 250.373 80.3295 249.487 78.6818C248.601 77.0227 248.152 75.1364 248.14 73.0227C248.129 70.5455 248.714 68.375 249.896 66.5114C251.078 64.6477 252.72 63.1989 254.822 62.1648C256.924 61.1307 259.356 60.6136 262.118 60.6136ZM262.186 67.7727C261.243 67.7727 260.402 67.9886 259.663 68.4205C258.936 68.8523 258.362 69.4375 257.942 70.1761C257.532 70.9148 257.334 71.75 257.345 72.6818C257.356 73.6136 257.567 74.4489 257.976 75.1875C258.396 75.9261 258.964 76.5114 259.68 76.9432C260.407 77.375 261.243 77.5909 262.186 77.5909C262.879 77.5909 263.521 77.4716 264.112 77.233C264.703 76.983 265.214 76.6364 265.646 76.1932C266.089 75.7386 266.43 75.2159 266.669 74.625C266.919 74.0227 267.038 73.375 267.027 72.6818C267.015 71.75 266.799 70.9148 266.379 70.1761C265.959 69.4375 265.385 68.8523 264.657 68.4205C263.93 67.9886 263.106 67.7727 262.186 67.7727ZM304.04 90.5455V83.1818L318.085 61.0909H324.767V70.9091H320.949L313.381 82.9091V83.1818H334.108V90.5455H304.04ZM321.017 96V88.2955L321.222 85.0909V61.0909H330.085V96H321.017ZM366.306 96.5455C364.987 96.5455 363.857 96.0852 362.914 95.1648C361.982 94.233 361.522 93.1023 361.533 91.7727C361.522 90.4773 361.982 89.3693 362.914 88.4489C363.857 87.5284 364.987 87.0682 366.306 87.0682C367.556 87.0682 368.658 87.5284 369.612 88.4489C370.578 89.3693 371.067 90.4773 371.078 91.7727C371.067 92.6591 370.834 93.4659 370.379 94.1932C369.936 94.9091 369.357 95.483 368.641 95.9148C367.925 96.3352 367.147 96.5455 366.306 96.5455ZM408.573 61.0909V96H399.096V61.0909H408.573ZM469.923 78.5455C469.923 82.4318 469.167 85.7102 467.656 88.3807C466.144 91.0398 464.104 93.0568 461.536 94.4318C458.968 95.7955 456.104 96.4773 452.945 96.4773C449.763 96.4773 446.888 95.7898 444.32 94.4148C441.763 93.0284 439.729 91.0057 438.218 88.3466C436.718 85.6761 435.968 82.4091 435.968 78.5455C435.968 74.6591 436.718 71.3864 438.218 68.7273C439.729 66.0568 441.763 64.0398 444.32 62.6761C446.888 61.3011 449.763 60.6136 452.945 60.6136C456.104 60.6136 458.968 61.3011 461.536 62.6761C464.104 64.0398 466.144 66.0568 467.656 68.7273C469.167 71.3864 469.923 74.6591 469.923 78.5455ZM460.173 78.5455C460.173 76.4545 459.894 74.6932 459.337 73.2614C458.792 71.8182 457.979 70.7273 456.9 69.9886C455.832 69.2386 454.513 68.8636 452.945 68.8636C451.377 68.8636 450.053 69.2386 448.974 69.9886C447.906 70.7273 447.093 71.8182 446.536 73.2614C445.991 74.6932 445.718 76.4545 445.718 78.5455C445.718 80.6364 445.991 82.4034 446.536 83.8466C447.093 85.2784 447.906 86.3693 448.974 87.1193C450.053 87.858 451.377 88.2273 452.945 88.2273C454.513 88.2273 455.832 87.858 456.9 87.1193C457.979 86.3693 458.792 85.2784 459.337 83.8466C459.894 82.4034 460.173 80.6364 460.173 78.5455Z" fill="#242232"/>
<path d="M157.075 25.2344C156.982 24.366 156.591 23.6899 155.902 23.206C155.219 22.7221 154.331 22.4801 153.237 22.4801C152.468 22.4801 151.809 22.5961 151.259 22.8281C150.708 23.0601 150.287 23.375 149.996 23.7727C149.704 24.1705 149.555 24.6245 149.548 25.1349C149.548 25.5592 149.644 25.9271 149.837 26.2386C150.036 26.5502 150.304 26.8153 150.642 27.0341C150.98 27.2462 151.355 27.4252 151.766 27.571C152.177 27.7169 152.591 27.8395 153.009 27.9389L154.918 28.4162C155.687 28.5952 156.426 28.8371 157.135 29.142C157.851 29.447 158.491 29.8314 159.054 30.2955C159.624 30.7595 160.075 31.3196 160.406 31.9759C160.738 32.6321 160.903 33.401 160.903 34.2827C160.903 35.4759 160.598 36.5265 159.989 37.4347C159.379 38.3362 158.497 39.0421 157.344 39.5526C156.197 40.0563 154.808 40.3082 153.178 40.3082C151.593 40.3082 150.218 40.063 149.051 39.5724C147.891 39.0819 146.983 38.366 146.327 37.4247C145.677 36.4834 145.326 35.3366 145.273 33.9844H148.902C148.955 34.6937 149.174 35.2836 149.558 35.7543C149.943 36.2249 150.443 36.5762 151.06 36.8082C151.683 37.0402 152.379 37.1562 153.148 37.1562C153.95 37.1562 154.652 37.0369 155.256 36.7983C155.866 36.553 156.343 36.215 156.688 35.7841C157.032 35.3466 157.208 34.8362 157.214 34.2528C157.208 33.7225 157.052 33.285 156.747 32.9403C156.442 32.589 156.015 32.2973 155.464 32.0653C154.921 31.8267 154.285 31.6146 153.555 31.429L151.239 30.8324C149.562 30.4015 148.236 29.7486 147.261 28.8736C146.294 27.992 145.81 26.822 145.81 25.3636C145.81 24.1638 146.134 23.1132 146.784 22.2116C147.44 21.3101 148.332 20.6108 149.459 20.1136C150.586 19.6098 151.862 19.358 153.287 19.358C154.732 19.358 155.998 19.6098 157.085 20.1136C158.179 20.6108 159.037 21.3035 159.661 22.1918C160.284 23.0734 160.605 24.0876 160.625 25.2344H157.075ZM177.679 40H173.742L180.911 19.6364H185.465L192.644 40H188.706L183.267 23.8125H183.108L177.679 40ZM177.808 32.0156H188.547V34.9787H177.808V32.0156ZM223.26 19.6364V40H219.979L210.384 26.1293H210.215V40H206.526V19.6364H209.827L219.412 33.517H219.591V19.6364H223.26ZM255.91 26.5071H252.191C252.085 25.8973 251.89 25.357 251.605 24.8864C251.32 24.4091 250.965 24.0047 250.541 23.6733C250.116 23.3419 249.633 23.0933 249.089 22.9276C248.552 22.7552 247.972 22.669 247.349 22.669C246.242 22.669 245.261 22.9474 244.406 23.5043C243.551 24.0544 242.881 24.8632 242.397 25.9304C241.913 26.991 241.671 28.2869 241.671 29.8182C241.671 31.3759 241.913 32.6884 242.397 33.7557C242.888 34.8163 243.557 35.6184 244.406 36.1619C245.261 36.6989 246.239 36.9673 247.339 36.9673C247.949 36.9673 248.519 36.8878 249.049 36.7287C249.586 36.563 250.067 36.321 250.491 36.0028C250.922 35.6847 251.283 35.2936 251.575 34.8295C251.873 34.3655 252.079 33.8352 252.191 33.2386L255.91 33.2585C255.771 34.2263 255.469 35.1345 255.005 35.983C254.548 36.8314 253.948 37.5805 253.205 38.2301C252.463 38.8731 251.595 39.3769 250.6 39.7415C249.606 40.0994 248.502 40.2784 247.289 40.2784C245.5 40.2784 243.902 39.8641 242.497 39.0355C241.091 38.2069 239.984 37.0104 239.176 35.446C238.367 33.8816 237.963 32.0057 237.963 29.8182C237.963 27.6241 238.37 25.7481 239.186 24.1903C240.001 22.6259 241.111 21.4295 242.517 20.6009C243.922 19.7723 245.513 19.358 247.289 19.358C248.423 19.358 249.477 19.517 250.451 19.8352C251.426 20.1534 252.294 20.6207 253.056 21.2372C253.819 21.8471 254.445 22.5961 254.936 23.4844C255.433 24.366 255.758 25.3736 255.91 26.5071ZM270.488 40V19.6364H274.177V28.2571H283.613V19.6364H287.312V40H283.613V31.3494H274.177V40H270.488ZM320.72 29.8182C320.72 32.0123 320.309 33.8916 319.487 35.456C318.672 37.0137 317.558 38.2069 316.146 39.0355C314.741 39.8641 313.147 40.2784 311.364 40.2784C309.58 40.2784 307.983 39.8641 306.571 39.0355C305.166 38.2003 304.052 37.0038 303.23 35.446C302.415 33.8816 302.007 32.0057 302.007 29.8182C302.007 27.6241 302.415 25.7481 303.23 24.1903C304.052 22.6259 305.166 21.4295 306.571 20.6009C307.983 19.7723 309.58 19.358 311.364 19.358C313.147 19.358 314.741 19.7723 316.146 20.6009C317.558 21.4295 318.672 22.6259 319.487 24.1903C320.309 25.7481 320.72 27.6241 320.72 29.8182ZM317.011 29.8182C317.011 28.2737 316.769 26.9711 316.286 25.9105C315.808 24.8433 315.145 24.0379 314.297 23.4943C313.448 22.9441 312.471 22.669 311.364 22.669C310.257 22.669 309.279 22.9441 308.43 23.4943C307.582 24.0379 306.916 24.8433 306.432 25.9105C305.955 26.9711 305.716 28.2737 305.716 29.8182C305.716 31.3627 305.955 32.6686 306.432 33.7358C306.916 34.7964 307.582 35.6018 308.43 36.152C309.279 36.6955 310.257 36.9673 311.364 36.9673C312.471 36.9673 313.448 36.6955 314.297 36.152C315.145 35.6018 315.808 34.7964 316.286 33.7358C316.769 32.6686 317.011 31.3627 317.011 29.8182ZM352.142 19.6364V40H348.861L339.266 26.1293H339.097V40H335.408V19.6364H338.709L348.294 33.517H348.473V19.6364H352.142ZM367.362 40V19.6364H380.606V22.7287H371.051V28.2571H379.92V31.3494H371.051V36.9077H380.686V40H367.362ZM394.675 22.7287V19.6364H410.922V22.7287H404.628V40H400.969V22.7287H394.675Z" fill="#242232"/>
</svg>
