<svg width="18" height="18" viewBox="0 0 18 18" fill="none" xmlns="http://www.w3.org/2000/svg">
<path d="M11.5 5.66667H11.5083M1.5 12.3333L5.66667 8.16666C6.44 7.4225 7.39333 7.4225 8.16667 8.16666L12.3333 12.3333M10.6667 10.6667L11.5 9.83333C12.2733 9.08916 13.2267 9.08916 14 9.83333L16.5 12.3333M1.5 4C1.5 3.33696 1.76339 2.70107 2.23223 2.23223C2.70107 1.76339 3.33696 1.5 4 1.5H14C14.663 1.5 15.2989 1.76339 15.7678 2.23223C16.2366 2.70107 16.5 3.33696 16.5 4V14C16.5 14.663 16.2366 15.2989 15.7678 15.7678C15.2989 16.2366 14.663 16.5 14 16.5H4C3.33696 16.5 2.70107 16.2366 2.23223 15.7678C1.76339 15.2989 1.5 14.663 1.5 14V4Z" stroke="#809CDE" stroke-width="2" stroke-linecap="round" stroke-linejoin="round"/>
</svg>
