<svg width="20" height="20" viewBox="0 0 20 20" fill="none" xmlns="http://www.w3.org/2000/svg">
<path d="M8.33341 9.16667H5.00008C4.77907 9.16667 4.56711 9.07887 4.41083 8.92259C4.25455 8.76631 4.16675 8.55435 4.16675 8.33333V5.83333C4.16675 5.61232 4.25455 5.40036 4.41083 5.24408C4.56711 5.0878 4.77907 5 5.00008 5H7.50008C7.7211 5 7.93306 5.0878 8.08934 5.24408C8.24562 5.40036 8.33341 5.61232 8.33341 5.83333V10.8333C8.33341 13.0558 7.22258 14.4442 5.00008 15M15.8334 9.16667H12.5001C12.2791 9.16667 12.0671 9.07887 11.9108 8.92259C11.7545 8.76631 11.6667 8.55435 11.6667 8.33333V5.83333C11.6667 5.61232 11.7545 5.40036 11.9108 5.24408C12.0671 5.0878 12.2791 5 12.5001 5H15.0001C15.2211 5 15.4331 5.0878 15.5893 5.24408C15.7456 5.40036 15.8334 5.61232 15.8334 5.83333V10.8333C15.8334 13.0558 14.7226 14.4442 12.5001 15" stroke="#809CDE" stroke-width="2" stroke-linecap="round" stroke-linejoin="round"/>
</svg>
