<svg width="20" height="20" viewBox="0 0 20 20" fill="none" xmlns="http://www.w3.org/2000/svg">
<path d="M4.16675 9.99994H15.8334M13.3334 5.41661C13.1445 5.04991 12.7114 4.72631 12.1055 4.49911C11.4996 4.2719 10.7571 4.15463 10.0001 4.16661H9.16675C8.3932 4.16661 7.65133 4.4739 7.10435 5.02088C6.55737 5.56786 6.25008 6.30972 6.25008 7.08327C6.25008 7.85682 6.55737 8.59869 7.10435 9.14567C7.65133 9.69265 8.3932 9.99994 9.16675 9.99994H10.8334C11.607 9.99994 12.3488 10.3072 12.8958 10.8542C13.4428 11.4012 13.7501 12.1431 13.7501 12.9166C13.7501 13.6902 13.4428 14.432 12.8958 14.979C12.3488 15.526 11.607 15.8333 10.8334 15.8333H9.58341C8.82644 15.8452 8.08388 15.728 7.478 15.5008C6.87212 15.2736 6.43904 14.95 6.25008 14.5833" stroke="#809CDE" stroke-width="2" stroke-linecap="round" stroke-linejoin="round"/>
</svg>
